<svg xmlns="http://www.w3.org/2000/svg" width="100" height="100" fill="none" viewBox="0 0 100 100"><g clip-path="url(#a)"><path fill="#f03603" d="M0 0h100v100H0z"/><path fill="#fff" d="M36 72.222V27.778h15.238c6.35 0 11.429 5.08 11.429 11.428v2.54c0 2.92-1.08 5.65-2.92 7.62a11.47 11.47 0 0 1 4.19 8.888v2.54c0 6.349-5.08 11.428-11.429 11.428zm6.35-6.349h10.158c2.857 0 5.08-2.222 5.08-5.08v-2.539c0-2.857-2.223-5.08-5.08-5.08H42.349zm0-19.048h8.888c2.857 0 5.08-2.222 5.08-5.079v-2.54c0-2.857-2.223-5.079-5.08-5.079H42.35z"/></g><defs><clipPath id="a"><path fill="#fff" d="M0 0h100v100H0z"/></clipPath></defs></svg>