<svg xmlns="http://www.w3.org/2000/svg" fill="none" viewBox="0 0 32 32"><path fill="#4718f2" d="M24.3 2.954 20.767.2l-2.863 3.795c-4.338-2.06-9.673-.91-12.71 3.015-3.534 4.554-2.71 11.104 1.844 14.639a10.3 10.3 0 0 0 5.79 2.169c3.32.195 6.68-1.193 8.85-4.013 3.057-3.925 2.84-9.39-.217-13.077zm-6.18 14.097a5.96 5.96 0 0 1-8.35 1.041c-2.58-2.017-3.058-5.769-1.041-8.35a5.9 5.9 0 0 1 3.947-2.255 6.3 6.3 0 0 1 1.106-.043A5.93 5.93 0 0 1 17.08 8.68c2.58 2.038 3.058 5.79 1.04 8.371m6.398 4.641a14.6 14.6 0 0 1-1.952 2.06 15 15 0 0 1-2.256 1.584 14.7 14.7 0 0 1-2.472 1.084 13.5 13.5 0 0 1-2.624.586c-.89.108-1.779.151-2.69.086-.91-.065-1.8-.216-2.667-.433l-.195.715-.89 3.622c1.128.304 2.278.477 3.449.564h.152c1.127.065 2.277.022 3.383-.108a19 19 0 0 0 3.47-.781A18.3 18.3 0 0 0 22.5 29.24c1.062-.586 2.06-1.302 2.992-2.082a17 17 0 0 0 2.581-2.712c.109-.13.195-.281.304-.433l-3.6-2.668c-.109.109-.174.239-.26.347"/></svg>