<svg xmlns="http://www.w3.org/2000/svg" width="401" height="400" fill="none" viewBox="0 0 401 400"><path fill="#ff4f00" d="M.526 0h400v400h-400z"/><rect width="400" height="400" x=".526" fill="#ff4f00" rx="200"/><path fill="#fffdf9" d="m56.8 220.362-.057-.181 36.063-33.015v-15.908H34.95v15.908h34.558l.057.152-35.71 33.044v15.907h59.533v-15.907zm72.097-50.614q-10.011 0-16.317 3.019a21.4 21.4 0 0 0-9.468 8.297 30.2 30.2 0 0 0-3.972 12.002l17.555 2.467q.953-5.61 3.81-7.954a11.63 11.63 0 0 1 7.544-2.333q5.344 0 7.754 2.857c1.591 1.905 2.4 4.544 2.4 8.021v1.733h-16.879q-12.888 0-18.517 5.716-5.63 5.715-5.62 15.088 0 9.602 5.62 14.288t14.136 4.658q10.563 0 16.25-7.268a27 27 0 0 0 4.696-10.011h.638l2.42 15.907h15.907v-40.283q0-12.488-6.582-19.346t-21.375-6.858m5.563 49.656c-2.525 2.105-5.83 3.153-9.945 3.153q-5.087 0-7.068-1.782a5.82 5.82 0 0 1-1.99-4.524 5.94 5.94 0 0 1 1.648-4.391 6.13 6.13 0 0 1 4.524-1.648h16.603v1.095a10.12 10.12 0 0 1-3.772 8.097m118.552-48.146h-18.794v65.021h18.794zm111.034 0q-7.962 0-12.554 5.62-3.296 4.039-5.01 11.936h-.553l-2.457-17.556h-16.051v65.011h18.794V202.93q0-6.305 2.953-9.668t10.897-3.362h7.134v-18.642zm-55.338 2.121q-6.582-3.915-16.602-3.905-15.774 0-24.69 8.982-8.916 8.983-8.916 24.766a39.5 39.5 0 0 0 4.048 18.375 29.2 29.2 0 0 0 11.526 12.145q7.468 4.315 17.765 4.324 8.906 0 14.879-2.743a23.9 23.9 0 0 0 9.468-7.478 32.6 32.6 0 0 0 5.144-10.63l-16.194-4.534a15 15 0 0 1-3.81 6.592q-2.743 2.743-9.192 2.743-7.668 0-11.43-4.391c-1.82-2.115-2.963-5.134-3.467-9.049h44.34c.181-1.829.276-3.363.276-4.601v-4.048a36.1 36.1 0 0 0-3.286-15.775 24.7 24.7 0 0 0-9.859-10.773m-17.145 11.593q11.43 0 12.964 11.249H277.57a15.5 15.5 0 0 1 3.019-6.868q3.706-4.391 10.974-4.381m-47.724-39.916a10.55 10.55 0 0 0-7.688 2.953 10.2 10.2 0 0 0-3.02 7.621 10.35 10.35 0 0 0 3.024 7.681 10.34 10.34 0 0 0 7.684 3.017 10.17 10.17 0 0 0 7.621-3.02 10.5 10.5 0 0 0 2.944-7.678 10.12 10.12 0 0 0-2.947-7.612 10.1 10.1 0 0 0-3.493-2.278 10.15 10.15 0 0 0-4.125-.684m-38.826 24.418q-9.601 0-15.431 6.029-4.315 4.468-6.334 13.336h-.6l-2.458-17.555h-16.05v83.671h18.794v-34.463h.685a35 35 0 0 0 2.401 6.668 18.93 18.93 0 0 0 7.477 8.363 21.97 21.97 0 0 0 11.107 2.676q11.802 0 17.974-9.191t6.173-25.652q0-15.899-5.973-24.89t-17.765-8.992m1.906 47.112q-3.286 4.763-10.288 4.763a12.13 12.13 0 0 1-10.078-4.601q-3.648-4.581-3.638-12.545v-1.238q0-8.087 3.638-12.383t10.078-4.248q7.125 0 10.354 4.524 3.23 4.525 3.229 12.621.02 8.373-3.276 13.107z"/></svg>