<svg xmlns="http://www.w3.org/2000/svg" width="116" height="28" fill="none" viewBox="0 0 116 28"><rect width="28" height="28" fill="#fff" rx="4" style="fill:#fff;fill-opacity:1"/><path fill="#000" d="M10.572 15.257c0 2.246-.91 4.12-2.394 5.848h3.454v1.674H6.335v-1.59c1.62-1.832 2.246-3.326 2.246-5.932zm6.856 0c0 2.246.91 4.12 2.394 5.848h-3.454v1.674h5.297v-1.59c-1.62-1.832-2.246-3.326-2.246-5.932zm-6.856-2.513c0-2.246-.91-4.122-2.394-5.849h3.454V5.221H6.335v1.59c1.62 1.832 2.246 3.326 2.246 5.932zm6.856 0c0-2.246.91-4.122 2.394-5.849h-3.454V5.221h5.297v1.59c-1.62 1.832-2.246 3.326-2.246 5.932z" style="fill:#000;fill-opacity:1"/><path fill="#fff" d="M41.168 20.272c-2.941 0-4.624-2.397-4.624-6.29 0-3.91 1.683-6.324 4.624-6.324 2.346 0 3.944 1.615 4.369 4.471l-2.482.119c-.238-1.581-.952-2.448-1.887-2.448-1.377 0-2.142 1.496-2.142 4.182 0 2.669.765 4.148 2.142 4.148.969 0 1.7-.918 1.938-2.618l2.465.119c-.391 2.941-1.989 4.641-4.403 4.641m9.785-.068c-2.584 0-4.318-1.853-4.318-4.76s1.734-4.76 4.318-4.76 4.318 1.853 4.318 4.76-1.734 4.76-4.318 4.76m0-2.04c1.224 0 1.921-.969 1.921-2.72s-.697-2.72-1.92-2.72c-1.242 0-1.922.969-1.922 2.72s.68 2.72 1.921 2.72M56.931 20v-9.112h2.108l.05 1.632c.477-1.258 1.48-1.836 2.755-1.836 1.955 0 2.839 1.411 2.839 3.417V20H62.37v-5.372c0-1.36-.46-1.989-1.394-1.989-.952 0-1.734.697-1.734 2.091V20zm14.97 0c-2.04 0-2.975-.918-2.975-2.856v-4.42h-2.618v-1.836h2.618V8.746h2.312v2.142h3.366v1.836h-3.366v4.199c0 .85.391 1.241 1.224 1.241h2.142V20zm8.68.204c-2.567 0-4.335-1.87-4.335-4.76 0-2.839 1.734-4.76 4.301-4.76 2.516 0 4.267 1.887 4.267 4.811v.578h-6.188c.102 1.36.867 2.091 2.006 2.091.833 0 1.445-.425 1.683-1.105l2.312.153c-.612 1.921-2.006 2.992-4.046 2.992m-1.92-5.712h3.688c-.119-1.173-.816-1.768-1.819-1.768-1.037 0-1.717.612-1.87 1.768M85.844 20l3.23-4.658-3.094-4.454h2.516l1.87 2.873 1.853-2.873h2.516l-3.043 4.454L94.889 20h-2.5l-2.022-3.111L88.36 20zm15.616 0c-2.04 0-2.975-.918-2.975-2.856v-4.42h-2.618v-1.836h2.618V8.746h2.312v2.142h3.366v1.836h-3.366v4.199c0 .85.391 1.241 1.224 1.241h2.142V20zm6.352 0c0-3.655 1.53-6.987 4.029-9.894h-5.95V7.93h8.364v2.057c-2.771 3.162-3.91 5.865-3.91 10.013z" style="fill:#fff;fill-opacity:1"/></svg>